<svg xmlns="http://www.w3.org/2000/svg" viewBox="0 0 46.61 45"><g id="Layer_1-2" data-name="Layer 1"><path d="M32.32,22.81c2.49.17,5,.4,7.27-1,1.52-.95,1.93-.82,3.14.46A12.64,12.64,0,0,1,46,29.47c.43,3.43.46,6.91.58,10.37.06,1.93-.29,2.08-2.16,2.57C38.32,44,32.08,44.06,25.83,43.88a8.54,8.54,0,0,1-3.16-.62,2.32,2.32,0,0,1-1-1.75c-.12-2.48-.06-5-.06-7.45a2,2,0,0,0-.3-1.26c0,.4-.1.8-.1,1.2,0,2.18-.06,4.36,0,6.53.07,3.15-.3,2.71-2.77,3.25A61.31,61.31,0,0,1,2.75,44.92c-1.42-.06-2.1-.75-2.24-2.65A97,97,0,0,1,0,32.54,14.92,14.92,0,0,1,4,22.59,2.22,2.22,0,0,1,6.77,22c4.31,1.82,8.51,1.87,12.54-.79a2,2,0,0,1,2.75.13c.81.76,1.56,1.58,2.39,2.43l2.61-3.16c-.52-.54-1-1.12-1.57-1.65C22.28,15.87,22,12,22.95,8A10,10,0,0,1,30.83.32C35.83-.78,40.78,1.54,43,7c2.53,6.23-.93,13.37-7,15a25,25,0,0,1-3.72.45ZM25.11,11.19c0,5,3.37,8.57,8.06,8.57a8.29,8.29,0,0,0,8.07-8.36c.1-4.77-3.84-8.73-8-8.77A8.3,8.3,0,0,0,25.11,11.19Zm19,23a20.1,20.1,0,0,0-2.29-9,1.36,1.36,0,0,0-2-.74,12.49,12.49,0,0,1-10.95-.31c-.4-.19-1.21-.31-1.36-.11a2.19,2.19,0,0,0-.4,1.62,13.16,13.16,0,0,0,5.94,8.23,24.24,24.24,0,0,0,8.8,3c2.2.39,2.27.18,2.25-2C44.14,34.66,44.14,34.44,44.14,34.22Zm-26.1,1a3.69,3.69,0,0,0,.64-1.12c.16-.89,0-1.85.26-2.71.58-2.12,1.32-4.2,2-6.3A4.65,4.65,0,0,0,21,24a10.71,10.71,0,0,0-1.2,0,2.07,2.07,0,0,0-.58.29,15,15,0,0,1-12.23.58,1.8,1.8,0,0,0-2.38,1.85,5,5,0,0,0,.85,1.74C8.34,32.82,12.88,34.25,18,35.22ZM2.93,29.72a44.45,44.45,0,0,0-.46,4.92A63.42,63.42,0,0,0,3,41.36a1.58,1.58,0,0,0,1.14,1c3.59-.1,7.19-.31,10.78-.53a18.12,18.12,0,0,0,2.67-.48,1.28,1.28,0,0,0,.76-.39c.65-1-.46-3.18-1.62-3.41C11.38,36.53,6.49,34.62,2.93,29.72Zm22.53-1-.4,0a49.71,49.71,0,0,0-.91,4.93c-.16,1.86-.07,3.74-.06,5.61s.23,2.17,2.1,2.12q6.1-.18,12.2-.5a41.75,41.75,0,0,0,4.36-.6c.23,0,.43-.3.87-.63a28.52,28.52,0,0,1-10.8-3A15.36,15.36,0,0,1,25.46,28.71Z"/><path d="M22.05,11.21c.55,5.41-3.9,9.88-7.43,10.73-6,1.46-11.26-1.12-13.17-7.31A11,11,0,0,1,9,.37a9.49,9.49,0,0,1,8.63,1.74C20.68,4.47,22.37,7.43,22.05,11.21Zm-2.48.05A8.44,8.44,0,0,0,11.5,2.62c-3.84,0-8,3.69-8.08,8.59-.07,4.13,3.71,8.69,8.17,8.61C15.73,19.76,19.91,15.85,19.58,11.26Z"/></g></svg>